# xmcd CD database file
#
# Track frame offsets:
#	180
#	25801
#	45636
#	65207
#	93566
#	107439
#	130989
#	168357
#	189349
#	215980
#	238289
#	250958
#	275184
#
# Disc length: 3880 seconds
#
# Revision: 2
# Processed by: cddbd v1.5.2PL0 Copyright (c) Steve Scherf et al.
# Submitted via: CDex 1.70beta2
#
DISCID=c90f260d
DTITLE=Eddie Vaan Shaw - The Trail Of Tears
DYEAR=1993
DGENRE=Blues
TTITLE0=Please Tell Me
TTITLE1=Geche Woman
TTITLE2=My Woman's Ugly
TTITLE3=Heart Of Your's
TTITLE4=Tears Are Fallin'
TTITLE5=I'm Ready
TTITLE6=Sky Is Crying
TTITLE7=Oh, How They Can Love
TTITLE8=I'm Crazy Now
TTITLE9=Luck Over-Due
TTITLE10=Blues-Men Of Yesterday
TTITLE11=Stone Cold Blue
TTITLE12=Bare Ass Slide
EXTD=YEAR: 1993
EXTT0=
EXTT1=
EXTT2=
EXTT3=
EXTT4=
EXTT5=
EXTT6=
EXTT7=
EXTT8=
EXTT9=
EXTT10=
EXTT11=
EXTT12=
PLAYORDER=
